<svg version="1.2" xmlns="http://www.w3.org/2000/svg" viewBox="0 0 19 11" width="19" height="11">
	<title>bed-svg</title>
	<style>
		.s0 { fill: #797979 } 
	</style>
	<path id="Icon_awesome-bed" fill-rule="evenodd" class="s0" d="m15.7 1.7q0.7 0 1.3 0.3 0.6 0.2 1 0.7 0.5 0.5 0.8 1.1 0.2 0.6 0.2 1.2v5.6q0 0.1 0 0.2-0.1 0.1-0.1 0.2-0.1 0-0.2 0.1-0.1 0-0.2 0h-0.9q-0.1 0-0.2 0-0.1-0.1-0.1-0.1-0.1-0.1-0.1-0.2-0.1-0.1-0.1-0.2v-1.4h-14.9v1.4q0 0.1 0 0.2 0 0.1-0.1 0.2-0.1 0-0.2 0.1 0 0-0.1 0h-1q-0.1 0-0.2 0 0-0.1-0.1-0.1-0.1-0.1-0.1-0.2 0-0.1 0-0.2v-10.2q0-0.1 0-0.2 0-0.1 0.1-0.2 0.1 0 0.1-0.1 0.1 0 0.2 0h1q0.1 0 0.1 0 0.1 0.1 0.2 0.1 0.1 0.1 0.1 0.2 0 0.1 0 0.2v6h6.5v-4.2q0.1-0.1 0.1-0.1 0-0.1 0.1-0.2 0.1-0.1 0.1-0.1 0.1 0 0.2 0h6.5zm-11.1 3.5q-0.4-0.1-0.8-0.5-0.3-0.3-0.5-0.7-0.1-0.4-0.1-0.9c0-0.9 0.5-1.8 1.4-2.2 0.9-0.3 1.9-0.1 2.5 0.6 0.7 0.6 0.9 1.6 0.5 2.5-0.3 0.9-1.2 1.4-2.1 1.4q-0.5 0-0.9-0.2z"/>
</svg>