<svg version="1.2" xmlns="http://www.w3.org/2000/svg" viewBox="0 0 13 13" width="13" height="13">
	<title>size-svg</title>
	<style>
		.s0 { fill: #797979 } 
	</style>
	<path id="Icon_awesome-expand-arrows-alt" class="s0" d="m13.5 9.2v3.4q0 0.1-0.1 0.2 0 0.2-0.1 0.3-0.1 0.1-0.3 0.1-0.1 0.1-0.2 0.1h-3.5q-0.1 0-0.2-0.1-0.2 0-0.3-0.1-0.1-0.1-0.1-0.3-0.1-0.1-0.1-0.2 0-0.1 0-0.2 0-0.1 0.1-0.1 0-0.1 0-0.1 0.1-0.1 0.1-0.2l1.1-1.1-3.2-3.2-3.3 3.3 1.1 1.1q0.1 0.1 0.2 0.2 0 0.2 0 0.3 0 0.1 0 0.3-0.1 0.1-0.2 0.2 0 0-0.1 0.1 0 0-0.1 0-0.1 0.1-0.1 0.1-0.1 0-0.2 0h-3.4q-0.1 0-0.3-0.1-0.1 0-0.2-0.1-0.1-0.1-0.2-0.2 0-0.2 0-0.3v-3.4q0-0.2 0-0.3 0.1-0.1 0.2-0.2 0.1-0.1 0.2-0.2 0.2 0 0.3 0 0.1 0 0.2 0 0 0 0.1 0 0.1 0 0.1 0.1 0.1 0 0.1 0.1l1.1 1.1 3.3-3.3-3.3-3.3-1.1 1.1q-0.1 0.1-0.2 0.2-0.1 0-0.3 0-0.1 0-0.2 0-0.2-0.1-0.3-0.2 0 0-0.1-0.1 0 0 0-0.1-0.1-0.1-0.1-0.1 0-0.1 0-0.2v-3.4q0-0.1 0.1-0.2 0-0.2 0.1-0.3 0.1-0.1 0.3-0.1 0.1-0.1 0.2-0.1h3.4q0.1 0 0.3 0.1 0.1 0 0.2 0.1 0.1 0.1 0.2 0.3 0 0.1 0 0.2 0 0.1 0 0.2 0 0 0 0.1-0.1 0.1-0.1 0.1 0 0.1-0.1 0.1l-1.1 1.1 3.3 3.3 3.2-3.3-1.1-1q-0.1-0.2-0.2-0.4 0-0.2 0.1-0.4 0.1-0.2 0.2-0.3 0.2-0.1 0.4-0.1h3.5q0.1 0 0.2 0 0.2 0.1 0.3 0.2 0.1 0.1 0.1 0.2 0.1 0.1 0.1 0.3v3.4q0 0.1-0.1 0.3 0 0.1-0.1 0.2-0.1 0.1-0.3 0.2-0.1 0-0.2 0-0.1 0-0.2 0-0.1 0-0.1 0-0.1-0.1-0.2-0.1 0 0-0.1-0.1l-1.1-1.1-3.2 3.2 3.2 3.3 1.1-1.1q0.1-0.1 0.3-0.2 0.1 0 0.2 0 0.2 0 0.3 0 0.1 0.1 0.2 0.2 0.1 0 0.1 0.1 0.1 0 0.1 0.1 0 0.1 0 0.1 0.1 0.1 0.1 0.2z"/>
</svg>